<svg width="838" height="769" viewBox="0 0 838 769" fill="none" xmlns="http://www.w3.org/2000/svg">
<path d="M599 478C599 501.638 594.344 525.044 585.298 546.883C576.252 568.722 562.994 588.565 546.279 605.279C529.565 621.994 509.722 635.252 487.883 644.298C466.044 653.344 442.638 658 419 658C395.362 658 371.956 653.344 350.117 644.298C328.278 635.252 308.435 621.994 291.721 605.279C275.006 588.565 261.748 568.722 252.702 546.883C243.656 525.044 239 501.638 239 478" stroke="black" stroke-width="40"/>
<circle cx="418.5" cy="502.5" r="105.5" stroke="black" stroke-width="20"/>
<circle cx="418.5" cy="214.5" r="61.5" stroke="black" stroke-width="20"/>
<path d="M599.5 483.5C599.5 468.906 597.45 454.384 593.41 440.36L531.616 225.873C530.88 223.318 530.67 220.639 531 218M239.107 480.656C239.107 466.062 241.158 451.54 245.198 437.516L307 223C307.735 220.45 307 222.154 307 219.5" stroke="black" stroke-width="40"/>
<path d="M531 223C531 193.296 519.2 164.808 498.196 143.804C477.192 122.8 448.704 111 419 111C389.296 111 360.808 122.8 339.804 143.804C318.8 164.808 307 193.296 307 223" stroke="black" stroke-width="40"/>
<circle cx="419" cy="305" r="5" stroke="black" stroke-width="10"/>
</svg>
