<svg width="838" height="769" viewBox="0 0 838 769" fill="none" xmlns="http://www.w3.org/2000/svg">
<path d="M638 492C638 520.103 632.478 547.931 621.748 573.894C611.019 599.858 595.293 623.449 575.467 643.321C555.642 663.193 532.106 678.956 506.203 689.71C480.3 700.465 452.537 706 424.5 706C396.463 706 368.7 700.465 342.797 689.71C316.894 678.956 293.358 663.193 273.533 643.321C253.707 623.449 237.981 599.858 227.252 573.894C216.522 547.931 211 520.103 211 492" stroke="black" stroke-width="40" fill="none"/>
<circle cx="425" cy="510" r="131" stroke="black" stroke-width="20" fill="none"/>
<path d="M417.5 99C460.356 99 495 133.528 495 176C495 218.472 460.356 253 417.5 253C374.644 253 340 218.472 340 176C340 133.528 374.644 99 417.5 99Z" stroke="black" stroke-width="20" fill="none"/>
<path d="M637 496C637 478.685 634.571 461.455 629.783 444.815L556.57 190.342C555.697 187.309 555.449 184.131 555.84 181M210 492.627C210 475.311 212.429 458.082 217.216 441.443L281.5 190C282.37 186.975 283 179 283 179" stroke="black" stroke-width="40" fill="none"/>
<path d="M556 186C556 149.665 541.619 114.819 516.02 89.1264C490.421 63.4339 455.702 49 419.5 49C383.298 49 348.579 63.4339 322.98 89.1264C297.381 114.819 283 149.665 283 186" stroke="black" stroke-width="40" fill="none"/>
<path d="M418.5 280C422.836 280 426 283.324 426 287C426 290.676 422.836 294 418.5 294C414.164 294 411 290.676 411 287C411 283.324 414.164 280 418.5 280Z" stroke="black" stroke-width="10" fill="none"/>
</svg>
